
<group>
lokey=81
hikey=81
ampeg_release=0.300

<region>
sample=scrape\scrape_1_rr1.wav
hirand=0.250
pitch_keycenter=81

<region>
sample=scrape\scrape_1_rr2.wav
lorand=0.250
hirand=0.500
pitch_keycenter=81

<region>
sample=scrape\scrape_1_rr3.wav
lorand=0.500
hirand=0.750
pitch_keycenter=81

<region>
sample=scrape\scrape_1_rr4.wav
lorand=0.750
pitch_keycenter=81

//========================
<group>
lokey=82
hikey=82
ampeg_release=0.300

<region>
sample=scrape\scrape_2_rr1.wav
hirand=0.250
pitch_keycenter=82

<region>
sample=scrape\scrape_2_rr2.wav
lorand=0.250
hirand=0.500
pitch_keycenter=82

<region>
sample=scrape\scrape_2_rr3.wav
lorand=0.500
hirand=0.750
pitch_keycenter=82

<region>
sample=scrape\scrape_2_rr4.wav
lorand=0.750
pitch_keycenter=82

//========================
<group>
lokey=83
hikey=83
ampeg_release=0.300

<region>
sample=scrape\scrape_3_rr1.wav
hirand=0.250
pitch_keycenter=83

<region>
sample=scrape\scrape_3_rr2.wav
lorand=0.250
hirand=0.500
pitch_keycenter=83

<region>
sample=scrape\scrape_3_rr3.wav
lorand=0.500
hirand=0.750
pitch_keycenter=83

<region>
sample=scrape\scrape_3_rr4.wav
lorand=0.750
pitch_keycenter=83

//========================
<group>
lokey=84
hikey=84
ampeg_release=0.300

<region>
sample=scrape\scrape_4_rr1.wav
hirand=0.250
pitch_keycenter=84

<region>
sample=scrape\scrape_4_rr2.wav
lorand=0.250
hirand=0.500
pitch_keycenter=84

<region>
sample=scrape\scrape_4_rr3.wav
lorand=0.500
hirand=0.750
pitch_keycenter=84

<region>
sample=scrape\scrape_4_rr4.wav
lorand=0.750
pitch_keycenter=84

//========================
<group>
lokey=33
hikey=38
ampeg_release=0.300

<region>
sample=staccato\db2_staccato_rr1.wav
hirand=0.200
pitch_keycenter=37

<region>
sample=staccato\db2_staccato_rr2.wav
lorand=0.200
hirand=0.400
pitch_keycenter=37

<region>
sample=staccato\db2_staccato_rr3.wav
lorand=0.400
hirand=0.600
pitch_keycenter=37

<region>
sample=staccato\db2_staccato_rr4.wav
lorand=0.600
hirand=0.800
pitch_keycenter=37

<region>
sample=staccato\db2_staccato_rr5.wav
lorand=0.800
pitch_keycenter=37

//========================
<group>
lokey=39
hikey=40
ampeg_release=0.300

<region>
sample=staccato\e2_staccato_rr1.wav
hirand=0.200
pitch_keycenter=40

<region>
sample=staccato\e2_staccato_rr2.wav
lorand=0.200
hirand=0.400
pitch_keycenter=40

<region>
sample=staccato\e2_staccato_rr3.wav
lorand=0.400
hirand=0.600
pitch_keycenter=40

<region>
sample=staccato\e2_staccato_rr4.wav
lorand=0.600
hirand=0.800
pitch_keycenter=40

<region>
sample=staccato\e2_staccato_rr5.wav
lorand=0.800
pitch_keycenter=40

//========================
<group>
lokey=41
hikey=43
ampeg_release=0.300

<region>
sample=staccato\gb2_staccato_rr1.wav
hirand=0.200
pitch_keycenter=42

<region>
sample=staccato\gb2_staccato_rr2.wav
lorand=0.200
hirand=0.400
pitch_keycenter=42

<region>
sample=staccato\gb2_staccato_rr3.wav
lorand=0.400
hirand=0.600
pitch_keycenter=42

<region>
sample=staccato\gb2_staccato_rr4.wav
lorand=0.600
hirand=0.800
pitch_keycenter=42

<region>
sample=staccato\gb2_staccato_rr5.wav
lorand=0.800
pitch_keycenter=42

//========================
<group>
lokey=44
hikey=46
ampeg_release=0.300

<region>
sample=staccato\a2_staccato_rr1.wav
hirand=0.200
pitch_keycenter=45

<region>
sample=staccato\a2_staccato_rr2.wav
lorand=0.200
hirand=0.400
pitch_keycenter=45

<region>
sample=staccato\a2_staccato_rr3.wav
lorand=0.400
hirand=0.600
pitch_keycenter=45

<region>
sample=staccato\a2_staccato_rr4.wav
lorand=0.600
hirand=0.800
pitch_keycenter=45

<region>
sample=staccato\a2_staccato_rr5.wav
lorand=0.800
pitch_keycenter=45

//========================
<group>
lokey=47
hikey=49
ampeg_release=0.300

<region>
sample=staccato\c3_staccato_rr1.wav
hirand=0.200
pitch_keycenter=48

<region>
sample=staccato\c3_staccato_rr2.wav
lorand=0.200
hirand=0.400
pitch_keycenter=48

<region>
sample=staccato\c3_staccato_rr3.wav
lorand=0.400
hirand=0.600
pitch_keycenter=48

<region>
sample=staccato\c3_staccato_rr4.wav
lorand=0.600
hirand=0.800
pitch_keycenter=48

<region>
sample=staccato\c3_staccato_rr5.wav
lorand=0.800
pitch_keycenter=47

//========================
<group>
lokey=50
hikey=52
ampeg_release=0.300

<region>
sample=staccato\eb3_staccato_rr1.wav
hirand=0.200
pitch_keycenter=51

<region>
sample=staccato\eb3_staccato_rr2.wav
lorand=0.200
hirand=0.400
pitch_keycenter=51

<region>
sample=staccato\eb3_staccato_rr3.wav
lorand=0.400
hirand=0.600
pitch_keycenter=51

<region>
sample=staccato\eb3_staccato_rr4.wav
lorand=0.600
hirand=0.800
pitch_keycenter=51

<region>
sample=staccato\eb3_staccato_rr5.wav
lorand=0.800
pitch_keycenter=51

//========================
<group>
lokey=53
hikey=55
ampeg_release=0.300

<region>
sample=staccato\gb3_staccato_rr1.wav
hirand=0.200
pitch_keycenter=54

<region>
sample=staccato\gb3_staccato_rr2.wav
lorand=0.200
hirand=0.400
pitch_keycenter=54

<region>
sample=staccato\gb3_staccato_rr3.wav
lorand=0.400
hirand=0.600
pitch_keycenter=54

<region>
sample=staccato\gb3_staccato_rr4.wav
lorand=0.600
hirand=0.800
pitch_keycenter=54

<region>
sample=staccato\gb3_staccato_rr5.wav
lorand=0.800
pitch_keycenter=54

//========================
<group>
lokey=56
hikey=58
ampeg_release=0.300

<region>
sample=staccato\a3_staccato_rr1.wav
hirand=0.200
pitch_keycenter=57

<region>
sample=staccato\a3_staccato_rr2.wav
lorand=0.200
hirand=0.400
pitch_keycenter=57

<region>
sample=staccato\a3_staccato_rr3.wav
lorand=0.400
hirand=0.600
pitch_keycenter=57

<region>
sample=staccato\a3_staccato_rr4.wav
lorand=0.600
hirand=0.800
pitch_keycenter=57

<region>
sample=staccato\a3_staccato_rr5.wav
lorand=0.800
pitch_keycenter=57

//========================
<group>
lokey=59
hikey=61
ampeg_release=0.300

<region>
sample=staccato\c4_staccato_rr1.wav
hirand=0.200

<region>
sample=staccato\c4_staccato_rr2.wav
lorand=0.200
hirand=0.400

<region>
sample=staccato\c4_staccato_rr3.wav
lorand=0.400
hirand=0.600

<region>
sample=staccato\c4_staccato_rr4.wav
lorand=0.600
hirand=0.800

<region>
sample=staccato\c4_staccato_rr5.wav
lorand=0.800

//========================
<group>
lokey=62
hikey=64
ampeg_release=0.300

<region>
sample=staccato\eb4_staccato_rr1.wav
hirand=0.200
pitch_keycenter=63

<region>
sample=staccato\eb4_staccato_rr2.wav
lorand=0.200
hirand=0.400
pitch_keycenter=63

<region>
sample=staccato\eb4_staccato_rr3.wav
lorand=0.400
hirand=0.600
pitch_keycenter=63

<region>
sample=staccato\eb4_staccato_rr4.wav
lorand=0.600
hirand=0.800
pitch_keycenter=63

<region>
sample=staccato\eb4_staccato_rr5.wav
lorand=0.800
pitch_keycenter=63

//========================
<group>
lokey=65
hikey=67
ampeg_release=0.300

<region>
sample=staccato\gb4_staccato_rr1.wav
hirand=0.200
pitch_keycenter=66

<region>
sample=staccato\gb4_staccato_rr2.wav
lorand=0.200
hirand=0.400
pitch_keycenter=66

<region>
sample=staccato\gb4_staccato_rr3.wav
lorand=0.400
hirand=0.600
pitch_keycenter=66

<region>
sample=staccato\gb4_staccato_rr4.wav
lorand=0.600
hirand=0.800
pitch_keycenter=66

<region>
sample=staccato\gb4_staccato_rr5.wav
lorand=0.800
pitch_keycenter=66

//========================
<group>
lokey=68
hikey=70
ampeg_release=0.300

<region>
sample=staccato\a4_staccato_rr1.wav
hirand=0.200
pitch_keycenter=69

<region>
sample=staccato\a4_staccato_rr2.wav
lorand=0.200
hirand=0.400
pitch_keycenter=69

<region>
sample=staccato\a4_staccato_rr3.wav
lorand=0.400
hirand=0.600
pitch_keycenter=69

<region>
sample=staccato\a4_staccato_rr4.wav
lorand=0.600
hirand=0.800
pitch_keycenter=69

<region>
sample=staccato\a4_staccato_rr5.wav
lorand=0.800
pitch_keycenter=69

//========================
<group>
lokey=71
hikey=73
ampeg_release=0.300

<region>
sample=staccato\c5_staccato_rr1.wav
hirand=0.200
pitch_keycenter=72

<region>
sample=staccato\c5_staccato_rr2.wav
lorand=0.200
hirand=0.400
pitch_keycenter=72

<region>
sample=staccato\c5_staccato_rr3.wav
lorand=0.400
hirand=0.600
pitch_keycenter=72

<region>
sample=staccato\c5_staccato_rr4.wav
lorand=0.600
hirand=0.800
pitch_keycenter=72

<region>
sample=staccato\c5_staccato_rr5.wav
lorand=0.800
pitch_keycenter=72

//========================
<group>
lokey=74
hikey=79
ampeg_release=0.300

<region>
sample=staccato\eb5_staccato_rr1.wav
hirand=0.200
pitch_keycenter=75

<region>
sample=staccato\eb5_staccato_rr2.wav
lorand=0.200
hirand=0.400
pitch_keycenter=75

<region>
sample=staccato\eb5_staccato_rr3.wav
lorand=0.400
hirand=0.600
pitch_keycenter=75

<region>
sample=staccato\eb5_staccato_rr4.wav
lorand=0.600
hirand=0.800
pitch_keycenter=75

<region>
sample=staccato\eb5_staccato_rr5.wav
lorand=0.800
pitch_keycenter=75
